<?xml version="1.0" encoding="UTF-8" standalone="no"?>
<svg
   xmlns:dc="http://purl.org/dc/elements/1.1/"
   xmlns:cc="http://creativecommons.org/ns#"
   xmlns:rdf="http://www.w3.org/1999/02/22-rdf-syntax-ns#"
   xmlns:svg="http://www.w3.org/2000/svg"
   xmlns="http://www.w3.org/2000/svg"
   xmlns:sodipodi="http://sodipodi.sourceforge.net/DTD/sodipodi-0.dtd"
   xmlns:inkscape="http://www.inkscape.org/namespaces/inkscape"
   viewBox="0 0 128 128"
   version="1.1"
   id="svg923"
   sodipodi:docname="part.svg"
   inkscape:version="0.92.3 (2405546, 2018-03-11)"
   width="128"
   height="128">
  <metadata
     id="metadata929">
    <rdf:RDF>
      <cc:Work
         rdf:about="">
        <dc:format>image/svg+xml</dc:format>
        <dc:type
           rdf:resource="http://purl.org/dc/dcmitype/StillImage" />
        <dc:title></dc:title>
      </cc:Work>
    </rdf:RDF>
  </metadata>
  <defs
     id="defs927" />
  <sodipodi:namedview
     pagecolor="#ffffff"
     bordercolor="#666666"
     borderopacity="1"
     objecttolerance="10"
     gridtolerance="10"
     guidetolerance="10"
     inkscape:pageopacity="0"
     inkscape:pageshadow="2"
     inkscape:window-width="1625"
     inkscape:window-height="995"
     id="namedview925"
     showgrid="false"
     inkscape:zoom="1.4440308"
     inkscape:cx="256"
     inkscape:cy="200.59952"
     inkscape:window-x="55"
     inkscape:window-y="27"
     inkscape:window-maximized="1"
     inkscape:current-layer="svg923" />
  <g
     class=""
     transform="matrix(0.27035164,0,0,0.27035164,-5.0434099,-12.293125)"
     style="fill:#000000"
     id="g921">
    <path
       d="m 256.03,76.47 c -12.332,-0.298 -23.413,6.18 -23.06,22.468 L 18.655,273 l 0.282,6.938 v 178.998 l 11.468,-2.686 155.906,-36.563 5.438,17.688 29.72,-3.344 -3.407,-21.81 69.312,-16.25 8.844,10.25 21.842,1.624 -0.937,-18.844 121.938,-28.625 v 0.03 c 1.36,-0.2 2.667,-0.52 3.937,-0.936 0.022,-0.01 0.04,-0.025 0.063,-0.033 l 20.812,-4.875 7.22,-1.687 v -7.188 l 18.53,-147.406 c 8.89,-17.113 -6.495,-46.453 -38.72,-40.124 4.752,-19.91 -38.983,-28.136 -52.03,-17.25 3.263,-18.202 -37.385,-41.715 -51.906,-21.187 4.632,-22.758 -46.006,-40.867 -58.845,-20.345 -2.41,-13.453 -18.07,-22.568 -32.094,-22.906 z m -10.28,39.655 c 2.336,2.81 7.442,5.542 13.406,6.844 5.964,1.3 12.622,1.13 16.375,0.155 l 8.94,-2.313 2.436,8.938 c 2.21,8.203 6.852,11.33 14.438,12.97 7.586,1.64 17.768,0.34 25.844,-2.876 l 10.375,-4.156 2.25,10.937 c 1,4.886 7.39,11.092 16.343,14.313 8.954,3.22 19.15,2.73 23.53,0 l 11.283,-7.032 2.78,13 c 1.227,5.752 4.534,9.73 9.656,12.594 5.123,2.864 12.08,4.212 19.063,3.375 l 2.25,18.563 c -10.635,1.274 -21.384,-0.563 -30.44,-5.625 -6.057,-3.388 -11.185,-8.528 -14.75,-14.844 -9.637,2.4 -20.165,0.986 -29.686,-2.44 -9.78,-3.517 -19.263,-9.534 -24.594,-18.468 -8.934,2.288 -18.56,2.914 -27.844,0.907 -10.046,-2.173 -19.796,-8.438 -25.312,-18.532 -5.44,0.405 -11.155,0.037 -16.906,-1.22 -8.71,-1.9 -17.57,-5.648 -23.813,-13.155 l 14.375,-11.938 z m 189.03,116.155 0.095,0.345 c 1.64,-0.385 1.946,-0.3 3.656,1.094 1.712,1.39 4.14,4.616 6.22,9.343 4.058,9.22 6.91,23.626 7.656,38.5 v 16 c -0.504,10.182 -1.96,19.874 -4.312,27.53 -1.743,5.672 -3.982,10.19 -6.156,12.938 -1.516,1.917 -2.777,2.92 -4,3.44 L 37.625,435.374 V 307.312 c 132.618,-34.5 265.01,-62.72 397.156,-75.03 z m -72.25,177.095 -26.436,3.063 14.562,21.312 24.97,-4.438 -13.095,-19.937 z m -62.78,25.03 -32,5.22 11.156,12.938 21.875,1.625 -1.03,-19.782 z m -157.25,29.5 -1.625,14.908 22.47,2.937 8.436,-15.313 -29.28,-2.53 z m 107.406,4.72 -24.312,3.156 1.75,16.158 31.687,-2.75 -9.124,-16.563 z"
       id="path919"
       style="fill:#000000;fill-opacity:1"
       inkscape:connector-curvature="0" />
  </g>
</svg>
