<?xml version="1.0" encoding="UTF-8" standalone="no"?>
<svg
   xmlns:dc="http://purl.org/dc/elements/1.1/"
   xmlns:cc="http://creativecommons.org/ns#"
   xmlns:rdf="http://www.w3.org/1999/02/22-rdf-syntax-ns#"
   xmlns:svg="http://www.w3.org/2000/svg"
   xmlns="http://www.w3.org/2000/svg"
   xmlns:sodipodi="http://sodipodi.sourceforge.net/DTD/sodipodi-0.dtd"
   xmlns:inkscape="http://www.inkscape.org/namespaces/inkscape"
   id="cusomize-refine-scale-range"
   version="1.1"
   viewBox="0 0 128 128"
   xml:space="preserve"
   sodipodi:docname="part.svg"
   width="128"
   height="128"
   inkscape:version="0.92.3 (2405546, 2018-03-11)"><metadata
     id="metadata15"><rdf:RDF><cc:Work
         rdf:about=""><dc:format>image/svg+xml</dc:format><dc:type
           rdf:resource="http://purl.org/dc/dcmitype/StillImage" /><dc:title></dc:title></cc:Work></rdf:RDF></metadata><defs
     id="defs13" /><sodipodi:namedview
     pagecolor="#ffffff"
     bordercolor="#666666"
     borderopacity="1"
     objecttolerance="10"
     gridtolerance="10"
     guidetolerance="10"
     inkscape:pageopacity="0"
     inkscape:pageshadow="2"
     inkscape:window-width="1625"
     inkscape:window-height="995"
     id="namedview11"
     showgrid="false"
     inkscape:zoom="0.62835935"
     inkscape:cx="3.955873"
     inkscape:cy="6.5"
     inkscape:window-x="55"
     inkscape:window-y="27"
     inkscape:window-maximized="1"
     inkscape:current-layer="cusomize-refine-scale-range" /><g
     id="g829"
     transform="matrix(8,0,0,8,0,-3884)"><rect
       id="rect2"
       y="493"
       x="12"
       width="4"
       height="1" /><path
       inkscape:connector-curvature="0"
       id="path4"
       d="m 11,495 c 0.827,0 1.5,-0.673 1.5,-1.5 0,-0.827 -0.673,-1.5 -1.5,-1.5 -0.651,0 -1.201,0.419 -1.408,1 H 0 v 1 h 9.592 c 0.207,0.581 0.757,1 1.408,1 z m 0,-2 c 0.276,0 0.5,0.224 0.5,0.5 0,0.276 -0.224,0.5 -0.5,0.5 -0.276,0 -0.5,-0.224 -0.5,-0.5 0,-0.276 0.224,-0.5 0.5,-0.5 z" /><path
       inkscape:connector-curvature="0"
       id="path6"
       d="m 6,497 c -0.651,0 -1.201,0.419 -1.408,1 H 0 v 1 h 4.592 c 0.207,0.581 0.757,1 1.408,1 0.651,0 1.201,-0.419 1.408,-1 H 16 v -1 H 7.408 C 7.201,497.419 6.651,497 6,497 Z m 0,2 c -0.276,0 -0.5,-0.224 -0.5,-0.5 0,-0.276 0.224,-0.5 0.5,-0.5 0.276,0 0.5,0.224 0.5,0.5 0,0.276 -0.224,0.5 -0.5,0.5 z" /><path
       inkscape:connector-curvature="0"
       id="path8"
       d="M 4.408,488 C 4.201,487.419 3.651,487 3,487 c -0.651,0 -1.201,0.419 -1.408,1 H 0 v 1 h 1.592 c 0.207,0.581 0.757,1 1.408,1 0.651,0 1.201,-0.419 1.408,-1 H 16 v -1 z M 3,489 c -0.276,0 -0.5,-0.224 -0.5,-0.5 0,-0.276 0.224,-0.5 0.5,-0.5 0.276,0 0.5,0.224 0.5,0.5 0,0.276 -0.224,0.5 -0.5,0.5 z" /></g></svg>